HIERARCHY
ROOT Hips
{
    OFFSET 0.000000 0.000000 0.000000
    CHANNELS 6 Xposition Yposition Zposition Zrotation Xrotation Yrotation
    JOINT Spine
    {
        OFFSET -0.000000 14.517291 0.000000
        CHANNELS 3 Zrotation Xrotation Yrotation
        JOINT Spine1
        {
            OFFSET -0.000000 37.558300 0.000000
            CHANNELS 3 Zrotation Xrotation Yrotation
            JOINT Neck
            {
                OFFSET -0.000000 37.404057 3.400369
                CHANNELS 3 Zrotation Xrotation Yrotation
                JOINT Head
                {
                    OFFSET -0.000000 24.785618 -3.540803
                    CHANNELS 3 Zrotation Xrotation Yrotation
                    End Site
                    {
                        OFFSET -0.000000 35.408028 0.000000
                    }
                }
            }
            JOINT LeftShoulder
            {
                OFFSET 6.992933 33.973492 -0.192664
                CHANNELS 3 Zrotation Xrotation Yrotation
                JOINT LeftArm
                {
                    OFFSET 21.527611 0.000000 0.000000
                    CHANNELS 3 Zrotation Xrotation Yrotation
                    JOINT LeftForeArm
                    {
                        OFFSET 56.353916 0.000000 0.000000
                        CHANNELS 3 Zrotation Xrotation Yrotation
                        JOINT LeftHand
                        {
                            OFFSET 47.774071 0.000000 0.000000
                            CHANNELS 3 Zrotation Xrotation Yrotation
                            End Site
                            {
                                OFFSET 26.556021 0.000000 0.000000
                            }
                        }
                    }
                }
            }
            JOINT RightShoulder
            {
                OFFSET -7.065357 33.973492 -0.192664
                CHANNELS 3 Zrotation Xrotation Yrotation
                JOINT RightArm
                {
                    OFFSET -21.527611 0.000000 0.000000
                    CHANNELS 3 Zrotation Xrotation Yrotation
                    JOINT RightForeArm
                    {
                        OFFSET -56.353916 0.000000 0.000000
                        CHANNELS 3 Zrotation Xrotation Yrotation
                        JOINT RightHand
                        {
                            OFFSET -47.774071 0.000000 0.000000
                            CHANNELS 3 Zrotation Xrotation Yrotation
                            End Site
                            {
                                OFFSET -26.556021 0.000000 0.000000
                            }
                        }
                    }
                }
            }
        }
    }
    JOINT LeftUpLeg
    {
        OFFSET 17.704014 0.000000 0.000000
        CHANNELS 3 Zrotation Xrotation Yrotation
        JOINT LeftLeg
        {
            OFFSET -0.000000 -81.181816 0.000000
            CHANNELS 3 Zrotation Xrotation Yrotation
            JOINT LeftFoot
            {
                OFFSET -0.000000 -62.821102 0.000000
                CHANNELS 3 Zrotation Xrotation Yrotation
                JOINT LeftToeBase
                {
                    OFFSET -0.000000 -11.507608 26.556021
                    CHANNELS 3 Zrotation Xrotation Yrotation
                    End Site
                    {
                        OFFSET -0.000000 0.000000 7.081605
                    }
                }
            }
        }
    }
    JOINT RightUpLeg
    {
        OFFSET -17.704014 0.000000 0.000000
        CHANNELS 3 Zrotation Xrotation Yrotation
        JOINT RightLeg
        {
            OFFSET -0.000000 -81.181816 0.000000
            CHANNELS 3 Zrotation Xrotation Yrotation
            JOINT RightFoot
            {
                OFFSET -0.000000 -62.821102 0.000000
                CHANNELS 3 Zrotation Xrotation Yrotation
                JOINT RightToeBase
                {
                    OFFSET -0.000000 -11.507608 26.556021
                    CHANNELS 3 Zrotation Xrotation Yrotation
                    End Site
                    {
                        OFFSET -0.000000 0.000000 7.081605
                    }
                }
            }
        }
    }
}
MOTION
Frames:    9
Frame Time:    0.008333
-11.587772    157.669479    -92.741562    -2.230878    -7.047930    50.301525    -3.421377    -2.943731    -4.033035    -1.910761    4.772491    -1.237035    2.342776    0.469093    -20.249178    15.913137    4.204884    -19.845215    12.222978    0.545048    -24.856453    -26.412165    13.716864    -63.291168    4.761746    -24.603214    -100.435188    -6.160604    -18.828030    -9.119533    -13.863593    -6.882281    -5.752854    16.022152    -24.896454    52.798996    -5.716788    -0.441592    14.805051    -7.223565    -2.015671    35.529140    24.305897    -0.321218    -4.464178    -10.084633    24.940271    -20.703337    -3.502756    -23.967951    40.930401    0.000000    0.000000    0.000000    -10.330239    -12.199020    -22.091215    4.760787    15.047873    -19.484209    6.322037    9.552146    -10.703198    0.000000    0.000000    0.000000    
-11.603124    157.661362    -92.728973    -2.225286    -7.059541    50.330006    -3.418068    -2.950902    -3.975451    -1.870953    4.761110    -1.219671    2.236690    0.559537    -20.297663    16.024948    4.178401    -19.864168    12.183999    0.440385    -24.716394    -26.024755    13.448514    -62.406185    4.077456    -23.451418    -100.801674    -5.583982    -18.442392    -8.816175    -13.934813    -6.840307    -5.762955    15.997167    -24.863045    52.725105    -5.737800    -0.437825    14.762197    -7.224012    -2.010429    35.517853    24.327520    -0.332741    -4.487975    -10.096694    24.954130    -20.716215    -3.506368    -23.973955    40.936035    0.000000    0.000000    0.000000    -10.335100    -12.200006    -22.100809    4.778149    15.091805    -19.465763    6.320055    9.516381    -10.748425    0.000000    0.000000    0.000000    
-11.615393    157.653564    -92.719696    -2.212703    -7.062097    50.361160    -3.423212    -2.956301    -3.926207    -1.833978    4.745942    -1.204980    2.145028    0.649236    -20.334200    16.101198    4.142708    -19.874952    12.204075    0.206633    -24.555887    -25.797173    13.280295    -61.501091    3.448774    -22.213146    -101.035088    -5.024191    -17.921850    -8.638878    -14.022618    -6.822448    -5.760505    16.004946    -24.819559    52.647961    -5.749393    -0.429380    14.721600    -7.236670    -2.006205    35.508938    24.333088    -0.342711    -4.505999    -10.105716    24.956423    -20.676624    -3.528466    -23.968529    40.883274    0.000000    0.000000    0.000000    -10.352231    -12.198460    -22.107107    4.789462    15.134838    -19.466591    6.328073    9.479242    -10.754823    0.000000    0.000000    0.000000    
-11.633694    157.648514    -92.702995    -2.215525    -7.084299    50.387840    -3.412282    -2.964067    -3.873358    -1.789491    4.742043    -1.189309    2.052491    0.701145    -20.372725    16.165771    4.149568    -19.895733    12.198703    0.223402    -24.427652    -25.280226    12.966527    -60.753387    2.913220    -21.161499    -101.157135    -4.700420    -17.479507    -8.658892    -14.093469    -6.829580    -5.762050    15.998229    -24.779928    52.571003    -5.741327    -0.410629    14.678334    -7.226577    -1.986036    35.489086    24.369141    -0.352016    -4.501440    -10.103000    24.974113    -20.714207    -3.524564    -23.969374    40.884369    0.000000    0.000000    0.000000    -10.334889    -12.201100    -22.118517    4.786942    15.174992    -19.471771    6.341474    9.466736    -10.764759    0.000000    0.000000    0.000000    
-11.642263    157.645279    -92.684128    -2.199317    -7.099405    50.423897    -3.431694    -2.970714    -3.820007    -1.718583    4.741101    -1.174296    1.930907    0.769174    -20.421381    16.248234    4.153248    -19.920582    12.144576    0.139641    -24.322378    -24.829920    12.730209    -59.978542    2.381312    -20.075186    -101.223541    -4.342293    -17.012182    -8.664125    -14.182908    -6.815905    -5.774814    16.017765    -24.752890    52.518463    -5.734991    -0.412402    14.625921    -7.188215    -1.977266    35.463501    24.386044    -0.344759    -4.519719    -10.120733    24.962996    -20.691113    -3.534609    -23.960382    40.862095    0.000000    0.000000    0.000000    -10.332814    -12.179797    -22.125944    4.787276    15.198724    -19.483767    6.334924    9.433645    -10.773350    0.000000    0.000000    0.000000    
-11.653068    157.641220    -92.666534    -2.190014    -7.118153    50.464771    -3.442823    -2.990964    -3.762302    -1.664402    4.759424    -1.156781    1.844936    0.820295    -20.461004    16.302912    4.158117    -19.944401    12.202020    -0.024592    -24.311451    -24.539673    12.550176    -59.148090    1.891950    -19.020832    -101.269341    -4.120249    -16.525093    -8.707491    -14.254107    -6.801853    -5.805695    16.032751    -24.740616    52.467697    -5.710046    -0.425946    14.588194    -7.154855    -1.982535    35.428627    24.403679    -0.353409    -4.516168    -10.106050    24.985458    -20.730879    -3.535490    -23.965164    40.850208    0.000000    0.000000    0.000000    -10.326533    -12.158542    -22.135479    4.795037    15.219257    -19.490238    6.344195    9.396664    -10.797540    0.000000    0.000000    0.000000    
-11.655304    157.634735    -92.641785    -2.175176    -7.136395    50.522385    -3.436789    -3.017777    -3.741708    -1.647459    4.805212    -1.149808    1.742283    0.848241    -20.487015    16.383863    4.180310    -19.951801    12.196550    -0.107404    -24.193840    -23.935953    12.521198    -58.527351    1.633871    -18.372158    -101.149055    -3.979330    -16.178366    -8.888701    -14.325175    -6.816305    -5.820744    16.078995    -24.736378    52.448639    -5.680186    -0.409029    14.509780    -7.146965    -1.971273    35.434376    24.420832    -0.356189    -4.549821    -10.101351    24.988325    -20.750647    -3.548417    -23.967857    40.830494    0.000000    0.000000    0.000000    -10.325818    -12.121950    -22.166389    4.794022    15.238253    -19.493097    6.360399    9.353009    -10.793951    0.000000    0.000000    0.000000    
-11.669410    157.635117    -92.622032    -2.181425    -7.162043    50.578655    -3.418208    -2.983841    -3.725424    -1.623809    4.667435    -1.147858    1.676726    1.010319    -20.506721    16.417154    4.189647    -19.958801    12.153008    -0.095478    -24.213305    -23.386269    12.514461    -57.797096    1.356145    -17.701447    -101.050209    -3.859227    -15.832893    -9.015055    -14.316668    -6.747084    -5.739809    16.093840    -24.766346    52.385384    -5.628313    -0.380651    14.469107    -7.165977    -1.954781    35.390881    24.456690    -0.380887    -4.563007    -10.095425    25.007353    -20.772091    -3.559507    -23.972807    40.820076    0.000000    0.000000    0.000000    -10.300418    -12.102054    -22.202402    4.783100    15.248938    -19.499722    6.368018    9.348079    -10.800580    0.000000    0.000000    0.000000    
-11.677649    157.634384    -92.602066    -2.170638    -7.189337    50.651451    -3.421781    -2.970802    -3.704483    -1.587754    4.644896    -1.142792    1.617555    1.040824    -20.538706    16.434116    4.237195    -19.988869    12.185300    -0.138040    -24.194405    -22.983847    12.427732    -57.178822    0.986534    -16.915302    -100.954712    -3.543866    -15.493899    -9.152818    -14.348791    -6.727405    -5.765772    16.099216    -24.743223    52.361935    -5.620512    -0.397299    14.411279    -7.140503    -1.965349    35.366100    24.483212    -0.396543    -4.601355    -10.096222    25.018591    -20.779659    -3.570512    -23.965019    40.794193    0.000000    0.000000    0.000000    -10.290570    -12.057781    -22.242641    4.780219    15.257947    -19.513666    6.379822    9.318414    -10.806011    0.000000    0.000000    0.000000    
